<svg width="576" height="512" xmlns="http://www.w3.org/2000/svg" class="svg-inline--fa fa-youtube fa-w-18">

 <g>
  <title>background</title>
  <rect fill="none" id="canvas_background" height="402" width="582" y="-1" x="-1"/>
 </g>
 <g>
  <title>Layer 1</title>
  <path id="svg_1" d="m549.655,124.083c-6.281,-23.65 -24.787,-42.276 -48.284,-48.597c-42.59,-11.486 -213.371,-11.486 -213.371,-11.486s-170.78,0 -213.371,11.486c-23.497,6.322 -42.003,24.947 -48.284,48.597c-11.412,42.867 -11.412,132.305 -11.412,132.305s0,89.438 11.412,132.305c6.281,23.65 24.787,41.5 48.284,47.821c42.591,11.486 213.371,11.486 213.371,11.486s170.78,0 213.371,-11.486c23.497,-6.321 42.003,-24.171 48.284,-47.821c11.412,-42.867 11.412,-132.305 11.412,-132.305s0,-89.438 -11.412,-132.305zm-317.51,213.508l0,-162.406l142.739,81.205l-142.739,81.201z" fill="#c7d4df"/>
 </g>
</svg>